<svg xmlns="http://www.w3.org/2000/svg" viewBox="0 0 960 560"><defs><style>.cls-1,.cls-2,.cls-3,.cls-4,.cls-9{fill:none;}.cls-1,.cls-11,.cls-2,.cls-3,.cls-4,.cls-8{stroke:#00a99d;}.cls-1,.cls-4{stroke-linecap:round;stroke-linejoin:round;}.cls-1,.cls-2{stroke-width:10px;}.cls-11,.cls-12,.cls-2,.cls-3,.cls-6,.cls-7,.cls-8,.cls-9{stroke-miterlimit:10;}.cls-3{stroke-width:15px;}.cls-4{stroke-width:12px;}.cls-5{font-size:61.35px;font-family:Ebrima-Bold, Ebrima;font-weight:700;}.cls-6{fill:#1a1a1a;}.cls-6,.cls-7{stroke:#000;}.cls-11,.cls-12,.cls-8{fill:#00a99d;}.cls-12,.cls-9{stroke:#333;}.cls-10{fill:#fff;}.cls-11{stroke-width:0.25px;}.cls-12{stroke-width:0.11px;}</style></defs><title>M4A</title><g id="CPU"><line class="cls-1" x1="234.47" y1="284.38" x2="298.26" y2="284.38"/><line class="cls-2" x1="298.26" y1="322.5" x2="253.91" y2="322.5"/><polyline class="cls-2" points="298.26 359.84 255.47 360.62 235.24 385.52"/><circle class="cls-3" cx="208.4" cy="219.42" r="20.62"/><polyline class="cls-1" points="298.26 247.81 263.25 247.03 226.34 229.57"/><circle class="cls-4" cx="224.74" cy="401.46" r="18.28"/><circle class="cls-1" cx="221.63" cy="284.77" r="12.84"/><circle class="cls-1" cx="244.58" cy="322.5" r="9.34"/></g><g id="LETRAS"><text class="cls-5" transform="translate(290.52 470.86) scale(0.7 1)">Minds For Analytics</text></g><g id="Layer_6" data-name="Layer 6"><line class="cls-6" x1="596.92" y1="398.06" x2="599.4" y2="398.06"/><polyline class="cls-7" points="599.4 398.06 687.79 398.06 587.59 194.89 487.4 398.06 596.92 398.06"/><path class="cls-8" d="M604.88,231.3l.54-.27-17.83-37-100,203.57.37.48,22.38-.08,97.48.08s-.4-34.95-2.09-35.55S540.22,359,540.22,359l51.13-120.8Z"/><line class="cls-9" x1="293.65" y1="419.75" x2="687.79" y2="419.75"/></g><g id="Layer_7" data-name="Layer 7"><path d="M458,196.45h29.43V398.61H456.76V247.2l1.54,8.9L403.14,370.52H381.26L326.1,258.88l1.54-11.68V398.61H297V196.45h29.43L392.2,329.92Z"/><path class="cls-10" d="M524.88,352.17l56-120.86H605L550.36,350.79h81.83v21.69H524.88Zm72-52.23h22.84v98.25H596.84Z"/></g><g id="Layer_8" data-name="Layer 8"><polygon class="cls-11" points="456.14 398.55 487.57 398.55 487.57 196.5 457.22 196.5 456.14 398.55"/><polygon class="cls-12" points="326.54 196.5 327.6 261.82 381.28 370.5 403.32 370.5 407.86 360.8 392.19 329.99 326.54 196.5"/></g></svg>